<svg width="172" height="170" viewBox="0 0 172 170" fill="none" xmlns="http://www.w3.org/2000/svg">
<path d="M10.2882 0.5C7.72698 0.5 5.27066 1.51744 3.4596 3.3285C1.64855 5.13956 0.631104 7.59588 0.631104 10.1571V48.7855H48.9166V0.5H10.2882ZM36.8452 36.7141H12.7025V12.5714H36.8452V36.7141Z" fill="black"/>
<path d="M0.631104 159.843C0.631104 162.404 1.64855 164.861 3.4596 166.672C5.27066 168.483 7.72698 169.5 10.2882 169.5H48.9166V121.215H0.631104V159.843ZM12.7025 133.286H36.8452V157.429H12.7025V133.286Z" fill="black"/>
<path d="M121.345 169.5H159.973C162.534 169.5 164.991 168.483 166.802 166.672C168.613 164.861 169.63 162.404 169.63 159.843V121.215H121.345V169.5ZM133.416 133.286H157.559V157.429H133.416V133.286Z" fill="black"/>
<path d="M159.973 0.5H121.345V48.7855H169.63V10.1571C169.63 7.59588 168.613 5.13956 166.802 3.3285C164.991 1.51744 162.534 0.5 159.973 0.5ZM157.559 36.7141H133.416V12.5714H157.559V36.7141Z" fill="black"/>
<path d="M97.2023 36.7149V24.6436H73.0596V48.7863H85.1309V36.7149H97.2023Z" fill="black"/>
<path d="M48.9167 48.7852H60.9881V60.8565H48.9167V48.7852Z" fill="black"/>
<path d="M60.9878 60.8574H85.1305V72.9288H60.9878V60.8574Z" fill="black"/>
<path d="M97.2019 12.5714V24.6427H109.273V0.5H60.9878V24.6427H73.0592V12.5714H97.2019Z" fill="black"/>
<path d="M0.631104 60.8574H12.7025V85.0002H0.631104V60.8574Z" fill="black"/>
<path d="M48.9166 72.9288V85.0002H36.8452V60.8574H24.7739V85.0002H12.7025V97.0715H0.631104V109.143H24.7739V97.0715H36.8452V109.143H48.9166V97.0715H60.988V72.9288H48.9166Z" fill="black"/>
<path d="M97.202 72.929H109.273V85.0003H121.345V72.929H133.416V60.8576H109.273V36.7148H97.202V48.7862H85.1306V60.8576H97.202V72.929Z" fill="black"/>
<path d="M85.1305 157.428H60.9878V169.499H109.273V157.428H97.2019V145.356H85.1305V157.428Z" fill="black"/>
<path d="M109.274 97.0715V85.0001H97.2023V72.9287H85.1309V85.0001H73.0596V97.0715H85.1309V109.143H97.2023V97.0715H109.274Z" fill="black"/>
<path d="M159.297 83.165H171.369V95.2364H159.297V83.165Z" fill="black"/>
<path d="M109.273 97.0713H145.488V109.143H109.273V97.0713Z" fill="black"/>
<path d="M157.559 60.8574H145.488V72.9288H133.416V85.0002H145.488V97.0715H157.559V85.0002H169.63V72.9288H157.559V60.8574Z" fill="black"/>
<path d="M97.2019 109.143H109.273V145.357H97.2019V109.143Z" fill="black"/>
<path d="M60.9878 145.357H73.0592V133.285H85.1305V121.214H73.0592V97.0713H60.9878V145.357Z" fill="black"/>
</svg>
