<svg width="30" height="30" viewBox="0 0 30 30" fill="none" xmlns="http://www.w3.org/2000/svg">
<path d="M11.3333 7H11.8014C12.1403 7 12.3111 7 12.4708 7.03733C12.6125 7.06933 12.7486 7.124 12.8736 7.19733C13.0125 7.27867 13.1333 7.39467 13.3736 7.624L17.6278 11.708C17.8667 11.9387 17.9861 12.0547 18.0722 12.188C18.1486 12.308 18.2056 12.4387 18.2389 12.5747C18.2778 12.7267 18.2778 12.888 18.2778 13.2067V23M11.3333 7H5.22222C4.44444 7 4.05556 7 3.75833 7.14533C3.49701 7.27316 3.28454 7.47713 3.15139 7.728C3 8.01333 3 8.38667 3 9.13333V24.8667C3 25.6133 3 25.9867 3.15139 26.272C3.28454 26.5229 3.49701 26.7268 3.75833 26.8547C4.05556 27 4.44306 27 5.21944 27H16.0569C16.8333 27 17.2236 27 17.5194 26.8547C17.7808 26.7269 17.9933 26.5229 18.1264 26.272C18.2778 25.9867 18.2778 25.6133 18.2778 24.8667V23M11.3333 7V11.5333C11.3333 12.28 11.3333 12.6533 11.4847 12.9387C11.6179 13.1895 11.8303 13.3935 12.0917 13.5213C12.3889 13.6667 12.7764 13.6667 13.5528 13.6667H18.2778M18.2778 23H25.7806C26.5556 23 26.9444 23 27.2431 22.8547C27.5035 22.7265 27.7149 22.5226 27.8472 22.272C28 21.9867 28 21.6133 28 20.8667V9.20667C28 8.888 28 8.72667 27.9611 8.57467C27.9278 8.43867 27.8708 8.308 27.7944 8.188C27.7083 8.05467 27.5889 7.93867 27.35 7.708L23.0958 3.624C22.8556 3.39467 22.7347 3.27867 22.5958 3.19733C22.4708 3.124 22.3347 3.06933 22.1931 3.03733C22.0333 3 21.8625 3 21.5236 3H21.0556M12.7222 7V5.13333C12.7222 4.38667 12.7222 4.01333 12.8736 3.728C13.0068 3.47713 13.2192 3.27316 13.4806 3.14533C13.7778 3 14.1667 3 14.9444 3H21.0556M21.0556 3V7.53333C21.0556 8.28 21.0556 8.65333 21.2069 8.93867C21.3401 9.18954 21.5526 9.3935 21.8139 9.52133C22.1111 9.66667 22.4986 9.66667 23.275 9.66667H28" stroke="black" stroke-width="2" stroke-linecap="round" stroke-linejoin="round"/>
</svg>
