<svg width="81" height="81" viewBox="0 0 81 81" fill="none" xmlns="http://www.w3.org/2000/svg">
<g clip-path="url(#clip0_33_9010)">
<path d="M40.4525 77.632C60.9596 77.632 77.5839 61.0077 77.5839 40.5005C77.5839 19.9934 60.9596 3.36914 40.4525 3.36914C19.9453 3.36914 3.32104 19.9934 3.32104 40.5005C3.32104 61.0077 19.9453 77.632 40.4525 77.632Z" stroke="#151615" stroke-width="6.72077" stroke-miterlimit="10"/>
<path d="M53.9413 53.9898C48.9915 58.9397 41.996 60.6003 35.6733 58.9704C35.6364 58.9606 35.6007 58.952 35.5638 58.9434C29.8267 57.5275 24.1708 61.5967 23.7058 67.5048H23.7046C23.5348 69.6894 22.6135 71.8285 20.9418 73.5015C17.2159 77.2262 11.1761 77.2262 7.45265 73.5015C3.72672 69.7755 3.72672 63.7358 7.45265 60.0123C9.12311 58.3406 11.2622 57.4181 13.4481 57.2471C13.4678 57.2459 13.4899 57.2434 13.5108 57.2422C19.3525 56.744 23.3749 51.1717 22.0353 45.4887C22.0353 45.4887 22.0349 45.4879 22.0341 45.4862C20.3157 39.1119 21.9591 32.0168 26.9631 27.0128C34.4137 19.5621 46.4919 19.5621 53.9426 27.0128C61.3932 34.4634 61.3932 46.5416 53.9426 53.9911L53.9413 53.9898Z" fill="#151615"/>
</g>
<defs>
<clipPath id="clip0_33_9010">
<rect width="81" height="81" fill="white"/>
</clipPath>
</defs>
</svg>
